<?xml version="1.0" encoding="utf-8"?>
<!-- Generator: Adobe Illustrator 15.0.0, SVG Export Plug-In . SVG Version: 6.00 Build 0)  -->
<!DOCTYPE svg PUBLIC "-//W3C//DTD SVG 1.1//EN" "http://www.w3.org/Graphics/SVG/1.1/DTD/svg11.dtd">
<svg version="1.1" id="Layer_1" xmlns="http://www.w3.org/2000/svg" xmlns:xlink="http://www.w3.org/1999/xlink" x="0px" y="0px"
	 width="22.25px" height="20.578px" viewBox="0 0 22.25 20.578" enable-background="new 0 0 22.25 20.578" xml:space="preserve">
<path fill="#FFFFFF" d="M22.25,15.366H9.203l-4.896,5.212v-5.212H0V0h22.25V15.366z M18.182,3.993c0-0.492-0.398-0.891-0.891-0.891
	H4.387c-0.492,0-0.89,0.398-0.89,0.891c0,0.491,0.398,0.89,0.89,0.89h12.904C17.783,4.883,18.182,4.484,18.182,3.993z M18.182,7.711
	c0-0.492-0.398-0.89-0.891-0.89H4.387c-0.492,0-0.89,0.397-0.89,0.89s0.398,0.89,0.89,0.89h12.904
	C17.783,8.601,18.182,8.203,18.182,7.711z M15.512,11.43c0-0.492-0.398-0.891-0.891-0.891H4.387c-0.492,0-0.89,0.398-0.89,0.891
	c0,0.491,0.398,0.89,0.89,0.89h10.234C15.113,12.319,15.512,11.921,15.512,11.43z"/>
</svg>
